<svg xmlns="http://www.w3.org/2000/svg" version="1.1" xmlns:xlink="http://www.w3.org/1999/xlink" xmlns:svgjs="http://svgjs.dev/svgjs" width="100%" height="100%" viewBox="0 0 1000 600"><rect width="1000" height="600" x="0" y="0" fill="#ffffff"/><g><rect width="333.3333333333333" height="333.3333333333333" rx="13.333333333333334" ry="13.333333333333334" y="208.58280996853486" fill="#4f46e5" transform="matrix(0.6707427242045438,0,0,0.6707427242045437,0,48.30415262414023)" x="186.36056518554688"/><path d="M331.32417027958104 341.754322045508L331.32417027958104 341.754322045508Q325.4989278487919 356.01403007921067 325.4989278487919 368.33199063598363Q325.4989278487919 380.62972465653854 330.53533536707835 386.4549670873277Q335.5515163491468 392.28020951811686 346.7772439501468 392.28020951811686L346.7772439501468 392.28020951811686Q353.4722274383107 392.28020951811686 358.56931456525126 387.4865204344466L358.56931456525126 387.4865204344466Q360.1672109264747 375.532637529598 361.17853773737556 371.6086895033025L361.17853773737556 371.6086895033025Q363.66640169219176 362.001084799744 368.7634888191323 362.001084799744L368.7634888191323 362.001084799744Q372.82902259895394 362.001084799744 376.46979911819716 367.60383533213496Q380.1105756374404 373.20658586452595 379.9689898839143 377.1305338908214L379.9689898839143 377.1305338908214Q379.9689898839143 383.68393162545925 374.7303170034476 401.46305696109704L374.7303170034476 401.46305696109704Q384.92449125732867 393.7365201258142 398.1728724801304 378.5868444985187L398.1728724801304 378.5868444985187Q400.0741668846241 376.40237858697276 401.3888917387953 376.40237858697276L401.3888917387953 376.40237858697276Q403.4115453605971 376.40237858697276 403.4115453605971 381.21629420686105L403.4115453605971 381.21629420686105Q403.4115453605971 390.5407274033673 394.10733870030884 401.0989793091727Q384.78290550380257 411.6572312149781 369.3500583694548 417.9072309063456L369.3500583694548 417.9072309063456Q368.1769192688098 420.6782663682141 367.44876396496113 423.1661303230303Q366.7206086611125 425.6337677416285 365.54746956046745 429.1329585073456Q364.3945569960404 432.63214927306274 361.4819357806458 436.77858919775633Q358.56931456525126 440.92502912245004 354.2003827421594 443.83765033784465L354.2003827421594 443.83765033784465Q344.8759495456531 450.2494623189564 332.86138703215045 450.2494623189564Q320.84682451864774 450.2494623189564 312.75621003144056 444.92988329361765Q304.6858220804514 439.6103042682789 304.6858220804514 430.2858710717726L304.6858220804514 430.2858710717726Q304.6858220804514 425.7753534951546 309.05475390354326 422.86273227976005Q313.42368572663514 419.95011106436544 320.40184072185133 417.8465512976916Q327.40022225328556 415.7227649947997 336.13808589946933 414.1248686335763Q344.8759495456531 412.52697227235285 353.61381319183687 410.48409211433307L353.61381319183687 410.48409211433307Q354.7869522924819 407.1467136383601 355.3532953065864 404.2340924229655L355.3532953065864 404.2340924229655Q349.68986516554133 408.6030242460574 341.376758779936 408.6030242460574L341.376758779936 408.6030242460574Q324.0426172410946 408.6030242460574 314.1518410304838 401.46305696109704L314.1518410304838 401.46305696109704Q302.6429419224316 393.14995057549163 302.6429419224316 375.532637529598L302.6429419224316 375.532637529598Q302.6429419224316 352.5350658497116 314.2934267840099 331.8433192986792L314.2934267840099 331.8433192986792Q310.79423601829285 327.7777855188576 308.60977010674685 323.32794755089367Q306.42530419520097 318.8781095829297 306.42530419520097 316.5520579178576L306.42530419520097 316.5520579178576Q306.42530419520097 312.486524138036 309.3379254105955 312.62810989156213L309.3379254105955 312.62810989156213Q311.2392198150892 312.62810989156213 313.7068572336874 314.9541615566342Q316.1947211885036 317.2802132217063 317.71171140485495 318.8781095829297Q319.2489281574243 320.49623248037113 320.9884102721739 321.79073079832426L320.9884102721739 321.79073079832426Q328.57336135393064 312.1831260947657 338.7675356078117 306.21629791045046Q348.9617098616927 300.24946972613515 361.17853773737556 300.24946972613515Q373.41559214927645 300.24946972613515 380.2723879271845 304.75998730275313Q387.1089571688746 309.2705048793712 387.1089571688746 320.49623248037113Q387.1089571688746 331.70173354515305 378.4519996675629 339.1248723371657Q369.77481563003323 346.54801112917824 354.3419684956855 346.54801112917824L354.3419684956855 346.54801112917824Q343.702810445008 346.54801112917824 331.32417027958104 341.754322045508ZM336.13808589946933 331.8433192986792L336.13808589946933 331.8433192986792Q344.14779424180443 335.3425100643963 355.51510759633055 335.3425100643963L355.51510759633055 335.3425100643963Q362.49326259154674 335.3425100643963 366.7206086611125 331.56014779162695Q370.94795473067825 327.7777855188576 370.94795473067825 323.32794755089367Q370.94795473067825 318.8781095829297 368.0960131239377 316.7745498162558Q365.2642980534152 314.670990049582 360.61219472327105 314.670990049582L360.61219472327105 314.670990049582Q346.61543166040263 314.670990049582 336.13808589946933 331.8433192986792ZM331.18258452605494 439.0237347179564L331.18258452605494 439.0237347179564Q341.0935872728837 439.0237347179564 348.5167260648963 424.17745713393117L348.5167260648963 424.17745713393117Q340.5070177225612 426.220337291951 334.9649467988243 427.37324985637804Q329.4431024113054 428.54638895702305 326.02481779046036 429.4161300143978Q322.58630663339727 430.2858710717726 321.06931641704597 431.1758386653654Q319.53209966447656 432.0455797227402 319.53209966447656 433.6434760839636L319.53209966447656 433.6434760839636Q319.53209966447656 436.41451154583206 323.2537823285919 437.64833025513116Q326.95523845648916 438.88214896443026 331.18258452605494 439.0237347179564Z " fill="#ffffff" transform="matrix(0.6707427242045438,0,0,0.6707427242045437,0,48.30415262414023)"/><path d="M631.7084705115146 341.754322045508L631.7084705115146 341.754322045508Q625.8832280807254 356.01403007921067 625.8832280807254 368.33199063598363Q625.8832280807254 380.62972465653854 630.9196355990118 386.4549670873277Q635.9358165810804 392.28020951811686 647.1615441820803 392.28020951811686L647.1615441820803 392.28020951811686Q653.8565276702443 392.28020951811686 658.9536147971847 387.4865204344466L658.9536147971847 387.4865204344466Q660.5515111584082 375.532637529598 661.5628379693092 371.6086895033025L661.5628379693092 371.6086895033025Q664.0507019241253 362.001084799744 669.1477890510657 362.001084799744L669.1477890510657 362.001084799744Q673.2133228308874 362.001084799744 676.8540993501306 367.60383533213496Q680.4948758693739 373.20658586452595 680.3532901158478 377.1305338908214L680.3532901158478 377.1305338908214Q680.3532901158478 383.68393162545925 675.114617235381 401.46305696109704L675.114617235381 401.46305696109704Q685.3087914892621 393.7365201258142 698.557172712064 378.5868444985187L698.557172712064 378.5868444985187Q700.4584671165577 376.40237858697276 701.7731919707288 376.40237858697276L701.7731919707288 376.40237858697276Q703.7958455925306 376.40237858697276 703.7958455925306 381.21629420686105L703.7958455925306 381.21629420686105Q703.7958455925306 390.5407274033673 694.4916389322423 401.0989793091727Q685.167205735736 411.6572312149781 669.7343586013883 417.9072309063456L669.7343586013883 417.9072309063456Q668.5612195007434 420.6782663682141 667.8330641968946 423.1661303230303Q667.1049088930461 425.6337677416285 665.9317697924009 429.1329585073456Q664.778857227974 432.63214927306274 661.8662360125793 436.77858919775633Q658.9536147971847 440.92502912245004 654.5846829740929 443.83765033784465L654.5846829740929 443.83765033784465Q645.2602497775865 450.2494623189564 633.2456872640839 450.2494623189564Q621.2311247505813 450.2494623189564 613.1405102633742 444.92988329361765Q605.0701223123849 439.6103042682789 605.0701223123849 430.2858710717726L605.0701223123849 430.2858710717726Q605.0701223123849 425.7753534951546 609.4390541354768 422.86273227976005Q613.8079859585687 419.95011106436544 620.7861409537849 417.8465512976916Q627.7845224852191 415.7227649947997 636.5223861314029 414.1248686335763Q645.2602497775865 412.52697227235285 653.9981134237703 410.48409211433307L653.9981134237703 410.48409211433307Q655.1712525244154 407.1467136383601 655.7375955385198 404.2340924229655L655.7375955385198 404.2340924229655Q650.0741653974749 408.6030242460574 641.7610590118695 408.6030242460574L641.7610590118695 408.6030242460574Q624.4269174730281 408.6030242460574 614.5361412624173 401.46305696109704L614.5361412624173 401.46305696109704Q603.0272421543651 393.14995057549163 603.0272421543651 375.532637529598L603.0272421543651 375.532637529598Q603.0272421543651 352.5350658497116 614.6777270159434 331.8433192986792L614.6777270159434 331.8433192986792Q611.1785362502263 327.7777855188576 608.9940703386803 323.32794755089367Q606.8096044271344 318.8781095829297 606.8096044271344 316.5520579178576L606.8096044271344 316.5520579178576Q606.8096044271344 312.486524138036 609.7222256425291 312.62810989156213L609.7222256425291 312.62810989156213Q611.6235200470228 312.62810989156213 614.0911574656209 314.9541615566342Q616.5790214204371 317.2802132217063 618.0960116367885 318.8781095829297Q619.6332283893578 320.49623248037113 621.3727105041073 321.79073079832426L621.3727105041073 321.79073079832426Q628.9576615858641 312.1831260947657 639.1518358397452 306.21629791045046Q649.3460100936263 300.24946972613515 661.5628379693092 300.24946972613515Q673.7998923812099 300.24946972613515 680.6566881591181 304.75998730275313Q687.493257400808 309.2705048793712 687.493257400808 320.49623248037113Q687.493257400808 331.70173354515305 678.8362998994965 339.1248723371657Q670.1591158619667 346.54801112917824 654.7262687276191 346.54801112917824L654.7262687276191 346.54801112917824Q644.0871106769416 346.54801112917824 631.7084705115146 341.754322045508ZM636.5223861314029 331.8433192986792L636.5223861314029 331.8433192986792Q644.532094473738 335.3425100643963 655.899407828264 335.3425100643963L655.899407828264 335.3425100643963Q662.8775628234803 335.3425100643963 667.1049088930461 331.56014779162695Q671.3322549626118 327.7777855188576 671.3322549626118 323.32794755089367Q671.3322549626118 318.8781095829297 668.4803133558712 316.7745498162558Q665.6485982853487 314.670990049582 660.9964949552045 314.670990049582L660.9964949552045 314.670990049582Q646.9997318923362 314.670990049582 636.5223861314029 331.8433192986792ZM631.5668847579884 439.0237347179564L631.5668847579884 439.0237347179564Q641.4778875048173 439.0237347179564 648.9010262968299 424.17745713393117L648.9010262968299 424.17745713393117Q640.8913179544948 426.220337291951 635.3492470307579 427.37324985637804Q629.8274026432389 428.54638895702305 626.4091180223938 429.4161300143978Q622.9706068653309 430.2858710717726 621.4536166489795 431.1758386653654Q619.9163998964101 432.0455797227402 619.9163998964101 433.6434760839636L619.9163998964101 433.6434760839636Q619.9163998964101 436.41451154583206 623.6380825605254 437.64833025513116Q627.3395386884226 438.88214896443026 631.5668847579884 439.0237347179564ZM735.693093208345 399.70334831012946L735.693093208345 399.70334831012946Q728.4115401698585 409.7559368104844 716.1744857579575 409.7559368104844L716.1744857579575 409.7559368104844Q706.2837095473468 409.7559368104844 700.3775609716855 405.6094968857907Q694.4916389322423 401.46305696109704 694.4916389322423 392.42179527164296L694.4916389322423 392.42179527164296Q694.4916389322423 388.63943299887364 695.5838718880152 385.4436402764268Q696.6761048437883 382.227621017762 699.1437422623866 377.57551768761783L699.1437422623866 377.57551768761783L703.3710883319521 343.06904689967917Q707.8816059085701 339.56985613396205 715.6081427438531 339.56985613396205L715.6081427438531 339.56985613396205Q722.161540478491 339.56985613396205 723.0312815358658 348.3077197801458L723.0312815358658 348.3077197801458Q723.314453042918 350.9169429522701 723.314453042918 354.4970398628593Q723.314453042918 358.05691023723045 722.161540478491 362.001084799744L722.161540478491 362.001084799744Q716.3362980477017 382.0860352642358 716.4778838012279 388.9428310421439L716.4778838012279 388.9428310421439Q716.4778838012279 394.18150392261055 722.5862977390692 394.18150392261055Q728.7149382131287 394.18150392261055 731.6275594285233 390.2373293600971Q734.540180643918 386.31338133380154 736.5628342657197 380.4881389030124L736.5628342657197 380.4881389030124Q740.3654230747071 364.327136464816 743.6421219420259 353.8295641676647Q746.918820809345 343.3522184067314 747.7885618667198 341.3093382487116L747.7885618667198 341.3093382487116Q749.2448724744169 337.8101474829945 753.3104062542385 337.66856172946837L753.3104062542385 337.66856172946837Q757.3961665702783 337.8101474829945 761.0369430895215 343.4331245516035Q764.6777196087647 349.0358750839945 764.6777196087647 352.0900820529152L764.6777196087647 352.0900820529152Q764.3945481017125 362.28425630679624 752.0159079362855 403.5059371191168L752.0159079362855 403.5059371191168Q761.4819268863179 396.06257179088624 770.786133546606 385.3020545229007L770.786133546606 385.3020545229007Q774.0021528052708 381.4994657139133 776.186618716817 378.95092215044303Q778.3710846283628 376.40237858697276 779.685809482534 376.40237858697276L779.685809482534 376.40237858697276Q781.7084631043357 376.40237858697276 781.7084631043357 381.0747084533349L781.7084631043357 381.0747084533349Q781.7084631043357 390.2373293600971 771.4536092418008 402.4743837719979Q761.1785288430475 414.7114381838988 746.3322512590224 421.5480074255889L746.3322512590224 421.5480074255889Q744.5725426080547 427.37324985637804 742.549888986253 432.63214927306274Q740.5070088282333 437.8708221535294 737.2909895695683 441.7947701798248L737.2909895695683 441.7947701798248Q730.3128345743522 450.2494623189564 716.0329000044316 450.2494623189564L716.0329000044316 450.2494623189564Q706.425295300873 450.2494623189564 699.649405667837 444.7073913952194Q692.8735160348009 439.1855470077005 692.8735160348009 430.87244062209516L692.8735160348009 430.87244062209516Q692.8735160348009 426.220337291951 696.0086291485936 423.44930183008256Q699.1437422623866 420.6782663682141 704.6049070412513 418.85787810859244Q710.0660718201162 417.03748984897084 717.3476248586027 415.66208538614563Q724.6291778970891 414.2664543871024 732.9220577464765 412.2438007653006L732.9220577464765 412.2438007653006Q734.9649379044962 403.5059371191168 735.693093208345 399.70334831012946ZM715.8913142509053 439.0237347179564L715.8913142509053 439.0237347179564Q722.7278834925954 439.0237347179564 728.2699544163323 427.0900783493258L728.2699544163323 427.0900783493258Q723.0312815358658 428.1014051602267 718.945521219826 428.62729510189513Q714.8799874400044 429.1329585073456 711.9673662246099 429.557715767924L711.9673662246099 429.557715767924Q706.1421237938206 430.44768336151674 706.2837095473468 432.63214927306274L706.2837095473468 432.63214927306274Q706.2837095473468 435.38295819871314 709.5604084146656 437.2842526032068Q712.8371072819847 439.1855470077005 715.8913142509053 439.0237347179564ZM863.8484266857068 375.9776213263944L863.8484266857068 375.9776213263944Q866.4778763940491 375.9776213263944 866.4778763940491 382.6726048145583L866.4778763940491 382.6726048145583Q866.4778763940491 386.31338133380154 863.4236694251284 391.49137460561417Q860.3492359199896 396.64914134120875 855.4746406914472 400.9573935556466Q850.6000454629049 405.24541923386636 844.6332172785898 408.01645469573486Q838.6663890942745 410.7874901576033 832.9827324170113 410.7874901576033L832.9827324170113 410.7874901576033Q825.2561955817285 410.7874901576033 822.6469724096042 397.23571089153126L822.6469724096042 397.23571089153126Q818.8443836006167 403.5059371191168 812.7359696627753 407.5107912902844Q806.627555724934 411.515645461452 796.3524753261808 411.515645461452Q786.0773949274277 411.515645461452 779.8273952360602 405.10383348034026Q773.5571690084745 398.69202149922853 773.6987547620007 389.5091740562484L773.6987547620007 389.5091740562484Q773.6987547620007 364.75189372539444 790.1631552434673 350.49218569169176L790.1631552434673 350.49218569169176Q797.1615367749015 344.52535750737644 803.1890445678708 342.62406310288276Q809.2367788970583 340.7227686983891 815.9317623852222 340.7227686983891Q822.6469724096042 340.7227686983891 826.8540919429519 343.06904689967917L826.8540919429519 343.06904689967917Q828.8969721009718 338.84170083011344 831.526421809314 338.84170083011344L831.526421809314 338.84170083011344Q836.6235089362546 338.84170083011344 841.2149326577447 343.27131226185935Q845.7861298430167 347.7211502298233 845.7861298430167 351.6450982561188L845.7861298430167 351.6450982561188Q843.763476221215 356.4590138760071 839.8193016587014 363.153997364171L839.8193016587014 363.153997364171Q838.6663890942745 369.848980852335 838.6663890942745 381.94444951070966Q838.6663890942745 394.03991816908444 841.7205960631951 394.03991816908444L841.7205960631951 394.03991816908444Q845.5029583359645 394.03991816908444 860.0660644129374 378.890242541789L860.0660644129374 378.890242541789Q862.6955141212796 375.9776213263944 863.8484266857068 375.9776213263944ZM795.1186566168818 384.71548497257817L795.1186566168818 384.71548497257817Q795.1186566168818 395.9209860373601 803.411536466269 395.9209860373601L803.411536466269 395.9209860373601Q812.290985865979 395.779400283834 818.1162282967681 386.4549670873277L818.1162282967681 386.4549670873277Q820.159108454788 383.2591743648809 821.4738333089591 378.5868444985187L821.4738333089591 378.5868444985187Q821.4738333089591 362.28425630679624 824.3864545243538 350.6337714452179L824.3864545243538 350.6337714452179Q812.5943839092491 352.95982311028996 803.8565202630654 362.001084799744Q795.1186566168818 371.02211995298 795.1186566168818 384.71548497257817ZM878.5531185162057 337.66856172946837L878.5531185162057 337.66856172946837Q883.8120179328904 337.66856172946837 888.4641212630346 347.7211502298233L888.4641212630346 347.7211502298233Q895.3006905047247 340.581182944863 905.4341851499518 340.581182944863Q915.5474532589607 340.581182944863 920.6445403859012 345.03102091282693Q925.7416275128418 349.46063234457284 925.7416275128418 357.55124683178Q925.7416275128418 365.6418613189872 923.6380677461678 373.93474116837456Q921.514281443276 382.227621017762 920.5838607772472 385.8077179283511Q919.6332135750002 389.3675883027223 919.6332135750002 391.69363996779435Q919.6332135750002 394.03991816908444 921.2311099362238 394.03991816908444L921.2311099362238 394.03991816908444Q923.4155758477697 394.03991816908444 926.6113685702165 391.268882707216Q929.8273878288813 388.49784724534754 933.0231805513282 385.2211483780286Q936.239199809993 381.94444951070966 938.9293291269895 379.1734140488412Q941.6194584439858 376.40237858697276 942.6307852548867 376.40237858697276L942.6307852548867 376.40237858697276Q944.6736654129064 376.40237858697276 944.6736654129064 381.35787996038715L944.6736654129064 381.35787996038715Q944.6736654129064 391.5520542142682 934.6210769125515 401.01807316430063L934.6210769125515 401.01807316430063Q917.7319191705066 410.9290759111294 913.0798158403626 410.9290759111294L913.0798158403626 410.9290759111294Q912.634832043566 410.9290759111294 912.49324629004 410.7874901576033L912.49324629004 410.7874901576033Q900.8427614284616 410.7874901576033 900.8427614284616 392.13862376459076L900.8427614284616 392.13862376459076Q900.8427614284616 384.12891542225566 902.3799781810309 377.4339319340917Q903.8969683973822 370.73894844592775 904.625123701231 367.664514940789Q905.3532790050796 364.6103079718683 905.3532790050796 361.41451524942147L905.3532790050796 361.41451524942147Q905.3532790050796 356.1758423689548 899.3055446758923 356.1758423689548Q893.278036882923 356.1758423689548 887.816872104058 365.1159713773187Q882.3557073251931 374.0763269219007 880.4544129206994 383.68393162545925L880.4544129206994 383.68393162545925L880.4544129206994 384.71548497257817Q880.4544129206994 389.67098634599256 881.9916296732689 394.9096592264592Q883.5086198896203 400.14833210692586 883.5086198896203 402.19121226494565L883.5086198896203 402.19121226494565Q883.5086198896203 407.1467136383601 871.1299797241933 411.94040272203034L871.1299797241933 411.94040272203034Q869.2489118559175 412.66855802587895 867.7926012482202 412.66855802587895L867.7926012482202 412.66855802587895Q864.151824728977 412.66855802587895 862.7561937299337 408.88619575310963Q861.3807892671085 405.10383348034026 861.3807892671085 397.09412513800515L861.3807892671085 397.09412513800515Q861.3807892671085 376.40237858697276 862.9786856283321 367.23975768021063L862.9786856283321 367.23975768021063Q865.163151539878 353.54639266061247 872.8896883751607 341.754322045508L872.8896883751607 341.754322045508Q875.498911547285 337.66856172946837 878.5531185162057 337.66856172946837ZM935.2076464628741 385.1402422331565Q935.2076464628741 383.400760118407 937.5336981279462 383.400760118407Q939.8799763292362 383.400760118407 951.9552184513931 386.5965528408538L951.9552184513931 386.5965528408538Q954.7262539132615 362.72924010359264 967.5498778754849 334.7559405140738L967.5498778754849 334.7559405140738Q972.0603954521029 324.5617662601927 978.3103951434704 324.5617662601927L978.3103951434704 324.5617662601927Q979.4835342441155 324.5617662601927 980.5757671998884 327.04963021500896Q981.6680001556614 329.51726763360716 981.6680001556614 333.1580441528504L981.6680001556614 333.1580441528504Q981.6680001556614 337.52697597594226 977.0765764341712 357.1871691798557Q972.4851527126813 376.84736238376917 971.0288421049839 391.4104684607421L971.0288421049839 391.4104684607421Q980.6566733447606 393.59493437228804 987.9989059919011 393.59493437228804Q995.3613651752595 393.59493437228804 1001.469779113101 389.7316659546466Q1007.5984195871605 385.8683975370052 1011.9673514102523 379.7599835991638L1011.9673514102523 379.7599835991638Q1020.9883865634885 366.7947738834142 1020.9883865634885 348.5908912871981L1020.9883865634885 348.5908912871981Q1020.8468008099622 314.9541615566342 994.1882260746146 314.9541615566342L994.1882260746146 314.9541615566342Q984.722207124582 315.09574731016033 960.6930820975768 323.40885369576574L960.6930820975768 323.40885369576574Q956.0409787674326 325.0067500569891 952.5417880017154 325.0067500569891Q949.0425972359984 325.0067500569891 949.0425972359984 322.9638698989693L949.0425972359984 322.9638698989693Q949.0425972359984 320.1928344371008 953.128357552038 316.4104721643315Q957.1938913318596 312.62810989156213 963.6057033129713 309.128919125845L963.6057033129713 309.128919125845Q979.3419484905893 300.6742269867135 994.1882260746146 300.6742269867135L994.1882260746146 300.6742269867135Q1014.5765745823766 300.6742269867135 1027.6833700516522 311.5965565444432L1027.6833700516522 311.5965565444432Q1043.116217186 324.5617662601927 1042.9746314324739 350.9169429522701L1042.9746314324739 350.9169429522701Q1042.9746314324739 362.14267055327014 1039.4754406667566 373.0650001109998Q1035.9964764372576 383.9873296687295 1028.8565091522973 392.50270141651504Q1021.716541867337 401.01807316430063 1010.7942123096071 406.2567460447673Q999.8718827518775 411.515645461452 985.0256051678524 411.515645461452L985.0256051678524 411.515645461452Q979.0385504473192 411.515645461452 969.875929540557 408.88619575310963L969.875929540557 408.88619575310963Q968.844376193438 411.6572312149781 964.7788424136164 411.6572312149781L964.7788424136164 411.6572312149781Q957.1938913318596 411.6572312149781 954.5037620148634 409.1086876515078Q951.8136326978669 406.56014408803753 951.3686489010705 400.7349016572484L951.3686489010705 400.7349016572484Q944.3904939058542 396.79072709473485 939.7990701843643 392.5836075613871Q935.2076464628741 388.3562614918214 935.2076464628741 385.1402422331565L935.2076464628741 385.1402422331565ZM1138.9495457869689 375.9776213263944L1138.9495457869689 375.9776213263944Q1141.5789954953111 375.9776213263944 1141.5789954953111 382.6726048145583L1141.5789954953111 382.6726048145583Q1141.5789954953111 386.31338133380154 1138.5045619901725 391.49137460561417Q1135.450355021252 396.64914134120875 1130.5757597927095 400.9573935556466Q1125.7011645641674 405.24541923386636 1119.7343363798518 408.01645469573486Q1113.7472816593186 410.7874901576033 1108.0838515182736 410.7874901576033L1108.0838515182736 410.7874901576033Q1100.3573146829908 410.7874901576033 1097.7278649746486 397.23571089153126L1097.7278649746486 397.23571089153126Q1093.945502701879 403.5059371191168 1087.8370887640376 407.5107912902844Q1081.7084482899782 411.515645461452 1071.453594427443 411.515645461452Q1061.1785140286902 411.515645461452 1054.9285143373227 405.10383348034026Q1048.658288109737 398.69202149922853 1048.7998738632632 389.5091740562484L1048.7998738632632 389.5091740562484Q1048.7998738632632 364.75189372539444 1065.2642743447295 350.49218569169176L1065.2642743447295 350.49218569169176Q1072.2424293399458 344.52535750737644 1078.290163669133 342.62406310288276Q1084.3378979983204 340.7227686983891 1091.0328814864847 340.7227686983891Q1097.7278649746486 340.7227686983891 1101.9552110442141 343.06904689967917L1101.9552110442141 343.06904689967917Q1103.9980912022338 338.84170083011344 1106.6275409105765 338.84170083011344L1106.6275409105765 338.84170083011344Q1111.7246280375166 338.84170083011344 1116.295825222789 343.27131226185935Q1120.8872489442792 347.7211502298233 1120.8872489442792 351.6450982561188L1120.8872489442792 351.6450982561188Q1118.844368786259 356.4590138760071 1114.9204207599637 363.153997364171L1114.9204207599637 363.153997364171Q1113.7472816593186 369.848980852335 1113.7472816593186 381.94444951070966Q1113.7472816593186 394.03991816908444 1116.8217151644571 394.03991816908444L1116.8217151644571 394.03991816908444Q1120.6040774372268 394.03991816908444 1135.1671835141997 378.890242541789L1135.1671835141997 378.890242541789Q1137.7764066863238 375.9776213263944 1138.9495457869689 375.9776213263944ZM1070.2197757181439 384.71548497257817L1070.2197757181439 384.71548497257817Q1070.2197757181439 395.9209860373601 1078.5126555675315 395.9209860373601L1078.5126555675315 395.9209860373601Q1087.3921049672413 395.779400283834 1093.2173473980306 386.4549670873277L1093.2173473980306 386.4549670873277Q1095.2602275560503 383.2591743648809 1096.5749524102216 378.5868444985187L1096.5749524102216 378.5868444985187Q1096.5749524102216 362.28425630679624 1099.4875736256158 350.6337714452179L1099.4875736256158 350.6337714452179Q1087.6955030105114 352.95982311028996 1078.9576393643279 362.001084799744Q1070.2197757181439 371.02211995298 1070.2197757181439 384.71548497257817ZM1223.6987325404643 375.9776213263944L1223.6987325404643 375.9776213263944Q1226.3281822488066 375.9776213263944 1226.3281822488066 382.6726048145583L1226.3281822488066 382.6726048145583Q1226.3281822488066 386.31338133380154 1223.2739752798861 391.49137460561417Q1220.2197683109653 396.64914134120875 1215.324946546205 400.9573935556466Q1210.4503513176624 405.24541923386636 1204.4835231333473 408.01645469573486Q1198.5166949490322 410.7874901576033 1192.833038271769 410.7874901576033L1192.833038271769 410.7874901576033Q1185.1065014364863 410.7874901576033 1182.4972782643617 397.23571089153126L1182.4972782643617 397.23571089153126Q1178.7149159915925 403.5059371191168 1172.586275517533 407.5107912902844Q1166.4778615796913 411.515645461452 1156.2027811809385 411.515645461452Q1145.9479273184033 411.515645461452 1139.6777010908177 405.10383348034026Q1133.407474863232 398.69202149922853 1133.5692871529764 389.5091740562484L1133.5692871529764 389.5091740562484Q1133.5692871529764 364.75189372539444 1150.013461098225 350.49218569169176L1150.013461098225 350.49218569169176Q1157.011842629659 344.52535750737644 1163.0595769588463 342.62406310288276Q1169.0870847518158 340.7227686983891 1175.8022947761979 340.7227686983891Q1182.4972782643617 340.7227686983891 1186.7246243339273 343.06904689967917L1186.7246243339273 343.06904689967917Q1188.7472779557293 338.84170083011344 1191.3767276640715 338.84170083011344L1191.3767276640715 338.84170083011344Q1196.473814791012 338.84170083011344 1201.0652385125022 343.27131226185935Q1205.6566622339924 347.7211502298233 1205.6566622339924 351.6450982561188L1205.6566622339924 351.6450982561188Q1203.6137820759723 356.4590138760071 1199.6696075134591 363.153997364171L1199.6696075134591 363.153997364171Q1198.5166949490322 369.848980852335 1198.5166949490322 381.94444951070966Q1198.5166949490322 394.03991816908444 1201.5709019179526 394.03991816908444L1201.5709019179526 394.03991816908444Q1205.3532641907218 394.03991816908444 1219.9163702676951 378.890242541789L1219.9163702676951 378.890242541789Q1222.5458199760374 375.9776213263944 1223.6987325404643 375.9776213263944ZM1154.9689624716393 384.71548497257817L1154.9689624716393 384.71548497257817Q1154.9689624716393 395.9209860373601 1163.2618423210265 395.9209860373601L1163.2618423210265 395.9209860373601Q1172.1615182569544 395.779400283834 1177.9867606877438 386.4549670873277L1177.9867606877438 386.4549670873277Q1180.0094143095457 383.2591743648809 1181.3241391637166 378.5868444985187L1181.3241391637166 378.5868444985187Q1181.3241391637166 362.28425630679624 1184.2367603791113 350.6337714452179L1184.2367603791113 350.6337714452179Q1172.4446897640069 352.95982311028996 1163.7068261178229 362.001084799744Q1154.9689624716393 371.02211995298 1154.9689624716393 384.71548497257817ZM1238.4236509071811 337.66856172946837L1238.4236509071811 337.66856172946837Q1243.662323787648 337.66856172946837 1248.314427117792 347.7211502298233L1248.314427117792 347.7211502298233Q1255.1712228957003 340.581182944863 1265.2844910047093 340.581182944863Q1275.3977591137182 340.581182944863 1280.4948462406587 345.03102091282693Q1285.5919333675993 349.46063234457284 1285.5919333675993 357.55124683178Q1285.5919333675993 365.6418613189872 1283.4883736009256 373.93474116837456Q1281.3848138342514 382.227621017762 1280.4341666320047 385.8077179283511Q1279.483519429758 389.3675883027223 1279.483519429758 391.69363996779435Q1279.483519429758 394.03991816908444 1281.0814157909813 394.03991816908444L1281.0814157909813 394.03991816908444Q1283.2658817025272 394.03991816908444 1286.481900961192 391.268882707216Q1289.677693683639 388.49784724534754 1292.8734864060857 385.2211483780286Q1296.0895056647505 381.94444951070966 1298.7796349817468 379.1734140488412Q1301.4697642987435 376.40237858697276 1302.5013176458624 376.40237858697276L1302.5013176458624 376.40237858697276Q1304.523971267664 376.40237858697276 1304.523971267664 381.35787996038715L1304.523971267664 381.35787996038715Q1304.523971267664 391.5520542142682 1294.4916093035272 401.01807316430063L1294.4916093035272 401.01807316430063Q1277.582225025264 410.9290759111294 1272.9301216951199 410.9290759111294L1272.9301216951199 410.9290759111294Q1272.4851378983235 410.9290759111294 1272.3435521447977 410.7874901576033L1272.3435521447977 410.7874901576033Q1260.693067283219 410.7874901576033 1260.693067283219 392.13862376459076L1260.693067283219 392.13862376459076Q1260.693067283219 384.12891542225566 1262.2302840357884 377.4339319340917Q1263.74727425214 370.73894844592775 1264.4754295559883 367.664514940789Q1265.203584859837 364.6103079718683 1265.203584859837 361.41451524942147L1265.203584859837 361.41451524942147Q1265.203584859837 356.1758423689548 1259.176077066868 356.1758423689548Q1253.1283427376807 356.1758423689548 1247.6671779588155 365.1159713773187Q1242.2060131799508 374.0763269219007 1240.3047187754569 383.68393162545925L1240.3047187754569 383.68393162545925L1240.3047187754569 384.71548497257817Q1240.3047187754569 389.67098634599256 1241.8419355280262 394.9096592264592Q1243.3589257443778 400.14833210692586 1243.3589257443778 402.19121226494565L1243.3589257443778 402.19121226494565Q1243.3589257443778 407.1467136383601 1230.9802855789508 411.94040272203034L1230.9802855789508 411.94040272203034Q1229.099217710675 412.66855802587895 1227.642907102978 412.66855802587895L1227.642907102978 412.66855802587895Q1224.0021305837345 412.66855802587895 1222.6064995846914 408.88619575310963Q1221.231095121866 405.10383348034026 1221.231095121866 397.09412513800515L1221.231095121866 397.09412513800515Q1221.231095121866 376.40237858697276 1222.8289914830893 367.23975768021063L1222.8289914830893 367.23975768021063Q1225.0134573946352 353.54639266061247 1232.7399942299185 341.754322045508L1232.7399942299185 341.754322045508Q1235.3492174020425 337.66856172946837 1238.4236509071811 337.66856172946837Z " fill="#4f46e5" transform="matrix(0.6707427242045438,0,0,0.6707427242045437,0,48.30415262414023)"/></g></svg>